<?xml version="1.0" encoding="UTF-8"?>
<svg width="22px" height="22px" viewBox="0 0 22 22" version="1.1" xmlns="http://www.w3.org/2000/svg" xmlns:xlink="http://www.w3.org/1999/xlink">
    <!-- Generator: Sketch 52.2 (67145) - http://www.bohemiancoding.com/sketch -->
    <title>销售名片 copy 3</title>
    <desc>Created with Sketch.</desc>
    <g id="页面-1" stroke="none" stroke-width="1" fill="none" fill-rule="evenodd">
        <g id="销售名片" transform="translate(-19.000000, -608.000000)">
            <rect fill="#FFFFFF" x="0" y="0" width="375" height="1285"></rect>
            <g id="地址" opacity="0.400000006" transform="translate(21.000000, 611.000000)" fill="#000000">
                <rect id="矩形" opacity="0" x="0" y="0" width="18" height="18"></rect>
                <path d="M9,17 C8.47860748,17 3,10.6288317 3,7.20307981 C3,3.77741831 5.68605261,1 9,1 C12.3139474,1 15,3.7770026 15,7.20307981 C15,10.6291932 9.494732,16.9999819 9,16.9999819 L9,17 Z M9,1.80042655 C6.11384483,1.80042655 3.77422175,4.21958141 3.77422175,7.20307981 C3.77422175,10.1873554 8.853708,16.1996457 9,16.1996457 C9.06735935,16.1996457 14.2258657,10.1873554 14.2258657,7.20307981 C14.2258657,4.21958141 11.8862426,1.80042655 9,1.80042655 Z M9,9.40418956 C7.8244193,9.40418956 6.87095139,8.41854034 6.87095139,7.20307981 C6.87095139,5.98772773 7.82443678,5.00197007 9,5.00197007 C10.1756681,5.00197007 11.1290486,5.98772773 11.1290486,7.20307981 C11.1290486,8.41854034 10.1756681,9.40418956 9,9.40418956 Z M9,5.80239662 C8.25175697,5.80239662 7.64517313,6.42987276 7.64517313,7.20307981 C7.64517313,7.97706405 8.25175697,8.60378109 9,8.60378109 C9.74829547,8.60378109 10.3548269,7.97706405 10.3548269,7.20307981 C10.3548269,6.42987276 9.74829547,5.80239662 9,5.80239662 Z" id="形状" fill-rule="nonzero"></path>
            </g>
        </g>
    </g>
</svg>