<?xml version="1.0" encoding="UTF-8"?>
<svg width="22px" height="22px" viewBox="0 0 22 22" version="1.1" xmlns="http://www.w3.org/2000/svg" xmlns:xlink="http://www.w3.org/1999/xlink">
    <!-- Generator: Sketch 52.2 (67145) - http://www.bohemiancoding.com/sketch -->
    <title>销售名片 copy 4</title>
    <desc>Created with Sketch.</desc>
    <g id="页面-1" stroke="none" stroke-width="1" fill="none" fill-rule="evenodd">
        <g id="销售名片" transform="translate(-19.000000, -655.000000)">
            <rect fill="#FFFFFF" x="0" y="0" width="375" height="1285"></rect>
            <g id="公司名称" opacity="0.5" transform="translate(22.000000, 658.000000)">
                <rect id="矩形" fill="#000000" opacity="0" x="0" y="0" width="16" height="16"></rect>
                <path d="M2,13.3333333 L10,13.3333333 L10,2.66666667 L2,2.66666667 L2,13.3333333 Z M2,2 L10,2 C10.3681898,2 10.6666667,2.29847684 10.6666667,2.66666667 L10.6666667,14 L1.33333333,14 L1.33333333,2.66666667 C1.33333333,2.29847684 1.63181016,2 2,2 Z" id="形状" fill="#4E4E4E" fill-rule="nonzero"></path>
                <path d="M10.6666667,5.52 L10.6666667,13.3333333 L13.3333333,13.3333333 L13.3333333,6.18666667 L10.6666667,5.52 Z M10,4.66666667 L13.4953333,5.54 C13.791954,5.61430606 13.999992,5.88088041 14,6.18666667 L14,14 L10,14 L10,4.66666667 Z" id="形状" fill="#4E4E4E" fill-rule="nonzero"></path>
                <path d="M0.666666672,13.3333333 L14.6666667,13.3333333 L14.6666667,14 L0.666666672,14 L0.666666672,13.3333333 Z M4,6.66666667 L8,6.66666667 L8,7.33333333 L4,7.33333333 L4,6.66666667 Z M4,8.66666667 L8,8.66666667 L8,9.33333333 L4,9.33333333 L4,8.66666667 Z" id="形状" fill="#4E4E4E" fill-rule="nonzero"></path>
            </g>
        </g>
    </g>
</svg>