<?xml version="1.0" encoding="UTF-8"?>
<svg width="16px" height="14px" viewBox="0 0 16 14" version="1.1" xmlns="http://www.w3.org/2000/svg" xmlns:xlink="http://www.w3.org/1999/xlink">
    <!-- Generator: Sketch 52.2 (67145) - http://www.bohemiancoding.com/sketch -->
    <title>公司信息</title>
    <desc>Created with Sketch.</desc>
    <g id="页面-1" stroke="none" stroke-width="1" fill="none" fill-rule="evenodd">
        <g id="销售名片" transform="translate(-103.000000, -278.000000)">
            <rect fill="#FFFFFF" x="0" y="0" width="375" height="1285"></rect>
            <g id="公司信息" transform="translate(103.000000, 277.000000)">
                <rect id="矩形" fill="#000000" opacity="0" x="0" y="0" width="16" height="16"></rect>
                <path d="M0.5,14.5 L0.5,13.5 L1.5,13.5 L1.5,3.5 C1.5,2.3954305 2.3954305,1.5 3.5,1.5 L8.5,1.5 C9.6045695,1.5 10.5,2.3954305 10.5,3.5 L10.5,6.5 L12.5,6.5 C13.6045695,6.5 14.5,7.3954305 14.5,8.5 L14.5,13.5 L15.5,13.5 L15.5,14.5 L0.5,14.5 Z M9.5,3.5 C9.5,2.94771525 9.05228475,2.5 8.5,2.5 L3.5,2.5 C2.94771525,2.5 2.5,2.94771525 2.5,3.5 L2.5,13.5 L9.5,13.5 L9.5,3.5 Z M13.5,8.5 C13.5,7.94771525 13.0522847,7.5 12.5,7.5 L10.5,7.5 L10.5,13.5 L13.5,13.5 L13.5,8.5 Z M3.5,8.5 L7.5,8.5 L7.5,9.5 L3.5,9.5 L3.5,8.5 Z M3.5,6.5 L7.5,6.5 L7.5,7.5 L3.5,7.5 L3.5,6.5 Z M3.5,4.5 L7.5,4.5 L7.5,5.5 L3.5,5.5 L3.5,4.5 Z" id="形状" fill="#63A7FF" fill-rule="nonzero"></path>
            </g>
        </g>
    </g>
</svg>