<?xml version="1.0" encoding="UTF-8"?>
<svg width="6px" height="12px" viewBox="0 0 6 12" version="1.1" xmlns="http://www.w3.org/2000/svg" xmlns:xlink="http://www.w3.org/1999/xlink">
    <!-- Generator: Sketch 52.2 (67145) - http://www.bohemiancoding.com/sketch -->
    <title>箭头 copy 2</title>
    <desc>Created with Sketch.</desc>
    <g id="页面-1" stroke="none" stroke-width="1" fill="none" fill-rule="evenodd">
        <g id="销售名片" transform="translate(-346.000000, -709.000000)">
            <rect fill="#FFFFFF" x="0" y="0" width="375" height="1285"></rect>
            <g id="箭头-copy-2" opacity="0.200000003" transform="translate(341.000000, 707.000000)" fill="#000000">
                <rect id="矩形" opacity="0" x="0" y="0" width="16" height="16"></rect>
                <path d="M10.8333333,8 C10.8333333,8.23333333 10.7666667,8.46666667 10.6,8.63333333 L6.93333333,12.9666667 C6.56666666,13.4 5.93333333,13.4333333 5.53333333,13.1 C5.1,12.7333333 5.06666666,12.1 5.4,11.7 L8.53333333,8 L5.4,4.3 C5.03333333,3.86666667 5.1,3.23333333 5.53333333,2.9 C5.96666666,2.53333333 6.6,2.6 6.93333333,3.03333333 L10.6,7.36666667 C10.7666667,7.53333334 10.8333333,7.76666667 10.8333333,8 Z" id="路径"></path>
            </g>
        </g>
    </g>
</svg>