<?xml version="1.0" encoding="UTF-8"?>
<svg width="22px" height="22px" viewBox="0 0 22 22" version="1.1" xmlns="http://www.w3.org/2000/svg" xmlns:xlink="http://www.w3.org/1999/xlink">
    <!-- Generator: Sketch 52.2 (67145) - http://www.bohemiancoding.com/sketch -->
    <title>销售名片 copy</title>
    <desc>Created with Sketch.</desc>
    <g id="页面-1" stroke="none" stroke-width="1" fill="none" fill-rule="evenodd">
        <g id="销售名片" transform="translate(-19.000000, -516.000000)">
            <rect fill="#FFFFFF" x="0" y="0" width="375" height="1285"></rect>
            <g id="手机号" opacity="0.400000006" transform="translate(20.000000, 518.000000)" fill="#000000">
                <rect id="矩形" opacity="0" x="0" y="0" width="20" height="20"></rect>
                <path d="M11.7073171,15 L9.29268292,15 C9.14634146,15 8.99999998,14.75 9,14.5 C9.00000002,14.25 9.14634146,14 9.29268292,14 L11.7073171,14 C11.8536585,14 12,14.25 12,14.5 C12,14.75 11.8536585,15 11.7073171,15 Z" id="路径"></path>
                <path d="M14.1666667,17 L6.83333333,17 C5.87301588,17 5,16.25 5,15.25 L5,3.75 C5.08730159,2.83333334 5.87301588,2 6.83333333,2 L14.1666667,2 C15.1269841,2 16,2.75 16,3.75 L16,15.25 C15.9126984,16.1666667 15.1269841,17 14.1666667,17 Z M6.83333333,2.75 C6.22222222,2.75 5.78571429,3.25 5.78571429,3.75 L5.78571429,15.25 C5.78571429,15.8333333 6.30952381,16.25 6.83333333,16.25 L14.1666667,16.25 C14.7777778,16.25 15.2142857,15.75 15.2142857,15.25 L15.2142857,3.75 C15.2142857,3.16666666 14.6904762,2.75 14.1666667,2.75 L6.83333333,2.75 Z" id="形状" fill-rule="nonzero"></path>
            </g>
        </g>
    </g>
</svg>