<?xml version="1.0" encoding="UTF-8"?>
<svg width="22px" height="22px" viewBox="0 0 22 22" version="1.1" xmlns="http://www.w3.org/2000/svg" xmlns:xlink="http://www.w3.org/1999/xlink">
    <!-- Generator: Sketch 52.2 (67145) - http://www.bohemiancoding.com/sketch -->
    <title>销售名片 copy 6</title>
    <desc>Created with Sketch.</desc>
    <g id="页面-1" stroke="none" stroke-width="1" fill="none" fill-rule="evenodd">
        <g id="销售名片" transform="translate(-19.000000, -754.000000)">
            <rect fill="#FFFFFF" x="0" y="0" width="375" height="1285"></rect>
            <g id="标签" opacity="0.400000006" transform="translate(22.000000, 757.000000)" fill="#000000">
                <rect id="矩形" opacity="0" x="0" y="0" width="16" height="16"></rect>
                <path d="M13.3671875,2 L9.0078125,2 C8.8390625,2 8.6796875,2.065625 8.5609375,2.184375 L2.184375,8.5609375 C1.9375,8.8078125 1.9375,9.2078125 2.184375,9.4546875 L6.54375,13.8140625 C6.6625,13.9328125 6.821875,13.9984375 6.990625,13.9984375 C7.159375,13.9984375 7.31875,13.9328125 7.4375,13.8140625 L13.8140625,7.4375 C13.9328125,7.31875 14,7.159375 14,6.990625 L14,2.63125 C14,2.284375 13.715625,2 13.3671875,2 Z M13.209375,6.9265625 L6.9921875,13.14375 L2.85625,9.0078125 L9.0734375,2.790625 L13.209375,2.790625 L13.209375,6.9265625 Z M9.5390625,6.459375 C9.846875,6.7671875 10.2546875,6.9359375 10.6890625,6.9359375 C11.1234375,6.9359375 11.5328125,6.7671875 11.8390625,6.459375 C12.146875,6.1515625 12.315625,5.74375 12.315625,5.309375 C12.315625,4.875 12.146875,4.465625 11.8390625,4.159375 C11.53125,3.8515625 11.1234375,3.6828125 10.6890625,3.6828125 C10.2546875,3.6828125 9.8453125,3.8515625 9.5390625,4.159375 C9.2328125,4.465625 9.0625,4.875 9.0625,5.309375 C9.0625,5.74375 9.2328125,6.153125 9.5390625,6.459375 Z M10.0984375,4.71875 C10.25625,4.5609375 10.4671875,4.4734375 10.6890625,4.4734375 C10.9125,4.4734375 11.121875,4.5609375 11.28125,4.71875 C11.4390625,4.8765625 11.5265625,5.0875 11.5265625,5.3109375 C11.5265625,5.534375 11.4390625,5.74375 11.28125,5.903125 C11.1234375,6.0609375 10.9140625,6.1484375 10.690625,6.1484375 C10.4671875,6.1484375 10.2578125,6.0609375 10.1,5.903125 C9.9421875,5.7453125 9.8546875,5.534375 9.8546875,5.3125 C9.8546875,5.0859375 9.940625,4.8765625 10.0984375,4.71875 Z" id="形状" fill-rule="nonzero"></path>
            </g>
        </g>
    </g>
</svg>