<?xml version="1.0" encoding="UTF-8"?>
<svg width="22px" height="22px" viewBox="0 0 22 22" version="1.1" xmlns="http://www.w3.org/2000/svg" xmlns:xlink="http://www.w3.org/1999/xlink">
    <!-- Generator: Sketch 52.2 (67145) - http://www.bohemiancoding.com/sketch -->
    <title>销售名片 copy 5</title>
    <desc>Created with Sketch.</desc>
    <g id="页面-1" stroke="none" stroke-width="1" fill="none" fill-rule="evenodd">
        <g id="销售名片" transform="translate(-19.000000, -703.000000)">
            <rect fill="#FFFFFF" x="0" y="0" width="375" height="1285"></rect>
            <g id="网络" opacity="0.400000006" transform="translate(22.000000, 706.000000)" fill="#000000">
                <rect id="矩形" opacity="0" x="0" y="0" width="16" height="16"></rect>
                <path d="M8,1.75 C8.84375,1.75 9.6625,1.915625 10.4328125,2.240625 C11.1765625,2.5546875 11.8453125,3.00625 12.4203125,3.5796875 C12.99375,4.153125 13.4453125,4.821875 13.759375,5.5671875 C14.084375,6.3375 14.25,7.15625 14.25,8 C14.25,8.84375 14.084375,9.6625 13.759375,10.4328125 C13.4453125,11.1765625 12.99375,11.8453125 12.4203125,12.4203125 C11.846875,12.99375 11.178125,13.4453125 10.4328125,13.759375 C9.6625,14.084375 8.84375,14.25 8,14.25 C7.15625,14.25 6.3375,14.084375 5.5671875,13.759375 C4.8234375,13.4453125 4.1546875,12.99375 3.5796875,12.4203125 C3.00625,11.846875 2.5546875,11.178125 2.240625,10.4328125 C1.915625,9.6625 1.75,8.84375 1.75,8 C1.75,7.15625 1.915625,6.3375 2.240625,5.5671875 C2.5546875,4.8234375 3.00625,4.1546875 3.5796875,3.5796875 C4.153125,3.00625 4.821875,2.5546875 5.5671875,2.240625 C6.3375,1.915625 7.15625,1.75 8,1.75 Z M8,1.125 C4.203125,1.125 1.125,4.203125 1.125,8 C1.125,11.796875 4.203125,14.875 8,14.875 C11.796875,14.875 14.875,11.796875 14.875,8 C14.875,4.203125 11.796875,1.125 8,1.125 Z M6.3265625,12.365625 C6.1734375,11.8203125 6.05,11.259375 5.9578125,10.6890625 C6.625,10.60625 7.3078125,10.5640625 7.9984375,10.5640625 C8.690625,10.5640625 9.371875,10.60625 10.0390625,10.6890625 C9.946875,11.259375 9.825,11.8203125 9.6703125,12.365625 C9.4890625,13.0109375 9.2640625,13.6328125 9.003125,14.2140625 C8.9078125,14.428125 8.80625,14.6359375 8.7,14.8390625 C8.95625,14.8125 9.209375,14.771875 9.4578125,14.71875 C10.0125,13.55 10.425,12.2171875 10.65625,10.778125 C11.203125,10.86875 11.7390625,10.9875 12.2625,11.134375 C12.7984375,11.284375 13.3171875,11.465625 13.8109375,11.6703125 C13.9234375,11.49375 14.0265625,11.3109375 14.1234375,11.1234375 C13.096875,10.6875 11.959375,10.3578125 10.74375,10.1578125 C10.825,9.4890625 10.8671875,8.8015625 10.8671875,8.0984375 C10.8671875,7.303125 10.8125,6.528125 10.709375,5.778125 C11.9265625,5.58125 13.065625,5.253125 14.0953125,4.81875 C13.9984375,4.63125 13.8921875,4.45 13.778125,4.2734375 C13.2953125,4.4734375 12.7859375,4.65 12.2625,4.796875 C11.725,4.9484375 11.175,5.06875 10.6125,5.1609375 C10.359375,3.728125 9.925,2.40625 9.3484375,1.2546875 C9.0984375,1.2046875 8.8453125,1.16875 8.5859375,1.146875 C8.734375,1.415625 8.8734375,1.6953125 9.003125,1.984375 C9.2640625,2.565625 9.4875,3.1875 9.6703125,3.8328125 C9.8,4.2953125 9.9078125,4.7671875 9.99375,5.2484375 C9.340625,5.328125 8.6734375,5.36875 7.996875,5.36875 C7.3203125,5.36875 6.653125,5.328125 6,5.2484375 C6.0859375,4.7671875 6.19375,4.2953125 6.3234375,3.8328125 C6.5046875,3.1875 6.7296875,2.565625 6.990625,1.984375 C7.1203125,1.6953125 7.259375,1.415625 7.4078125,1.146875 C7.15,1.16875 6.8953125,1.2046875 6.6453125,1.2546875 C6.06875,2.40625 5.634375,3.728125 5.38125,5.1609375 C4.81875,5.0703125 4.26875,4.9484375 3.73125,4.796875 C3.2078125,4.65 2.6984375,4.4734375 2.215625,4.2734375 C2.1015625,4.45 1.9953125,4.63125 1.8984375,4.81875 C2.9265625,5.253125 4.0671875,5.5796875 5.284375,5.778125 C5.18125,6.5265625 5.1265625,7.303125 5.1265625,8.0984375 C5.1265625,8.8015625 5.16875,9.490625 5.25,10.1578125 C4.0390625,10.3609375 2.9015625,10.6890625 1.875,11.125 C1.9703125,11.3125 2.075,11.4953125 2.1875,11.671875 C2.68125,11.465625 3.2,11.2859375 3.7359375,11.1359375 C4.259375,10.9890625 4.7953125,10.8703125 5.3421875,10.7796875 C5.571875,12.21875 5.984375,13.5515625 6.5390625,14.71875 C6.7875,14.771875 7.0390625,14.8125 7.296875,14.8390625 C7.190625,14.6359375 7.0890625,14.4265625 6.99375,14.2140625 C6.7328125,13.6328125 6.5078125,13.0109375 6.3265625,12.365625 Z M5.75625,8.1 C5.75625,7.3421875 5.80625,6.596875 5.90625,5.86875 C6.584375,5.953125 7.284375,5.996875 8,5.996875 C8.715625,5.996875 9.415625,5.953125 10.09375,5.86875 C10.19375,6.596875 10.24375,7.3421875 10.24375,8.1 C10.24375,8.7671875 10.2046875,9.425 10.1265625,10.0703125 C9.4375,9.984375 8.7265625,9.9390625 7.9984375,9.9390625 C7.2703125,9.9390625 6.559375,9.984375 5.8703125,10.0703125 C5.7953125,9.4265625 5.75625,8.7671875 5.75625,8.1 Z M14.875,7.6875 L1.125,7.6875 L1.125,8.3125 L14.875,8.3125 L14.875,7.6875 Z" id="形状" fill-rule="nonzero"></path>
            </g>
        </g>
    </g>
</svg>