<?xml version="1.0" encoding="UTF-8"?>
<svg width="22px" height="22px" viewBox="0 0 22 22" version="1.1" xmlns="http://www.w3.org/2000/svg" xmlns:xlink="http://www.w3.org/1999/xlink">
    <!-- Generator: Sketch 52.2 (67145) - http://www.bohemiancoding.com/sketch -->
    <title>销售名片</title>
    <desc>Created with Sketch.</desc>
    <g id="页面-1" stroke="none" stroke-width="1" fill="none" fill-rule="evenodd">
        <g id="销售名片" transform="translate(-19.000000, -467.000000)">
            <rect fill="#FFFFFF" x="0" y="0" width="375" height="1285"></rect>
            <g id="微信" opacity="0.400000006" transform="translate(22.000000, 471.000000)" fill="#000000">
                <rect id="矩形" opacity="0" x="0" y="0" width="16" height="16"></rect>
                <path d="M7.79776602,5.43680187 C8.23045267,5.43680187 8.51263963,5.14520869 8.51263963,4.72192827 C8.51263963,4.29864784 8.22104644,4.00705466 7.79776602,4.00705466 C7.38389183,4.00705466 6.94179894,4.27983537 6.94179894,4.72192827 C6.94179894,5.15461494 7.38389183,5.43680187 7.79776602,5.43680187 Z M4.68430334,4.71252205 C4.68430334,4.28924162 4.39271016,3.99764844 3.96942973,3.99764844 C3.55555555,3.99764844 3.11346266,4.27042916 3.11346266,4.71252205 C3.11346266,5.15461494 3.55555555,5.42739566 3.96942973,5.42739566 C4.40211641,5.43680187 4.68430334,5.1452087 4.68430334,4.71252205 Z M16,9.77307466 C16,8.71957672 15.5296884,7.7037037 14.6831276,6.91358023 C13.845973,6.13286302 12.7266314,5.6531452 11.5414462,5.54967664 C11.5414462,5.53086417 11.5414462,5.51205172 11.5414462,5.49323925 C11.0429159,3.17930627 8.5596708,1.42974719 5.75661377,1.42974719 C2.57730747,1.4297472 0,3.64021164 0,6.35861258 C0,7.80717225 0.733686063,9.12404467 2.13521458,10.1493239 L1.65549677,11.5978836 C1.61787184,11.7107584 1.65549677,11.8236332 1.74015284,11.898883 C1.82480892,11.9741329 1.95649617,11.9835391 2.05055848,11.9365079 L3.87536742,11.0241035 L4.09171075,11.0711346 L4.10111698,11.0711346 C4.66549087,11.1840094 5.15461492,11.2874779 5.75661375,11.2874779 C5.86948853,11.2874779 6.30217519,11.249853 6.44326866,11.1840094 C7.1393298,12.8771311 9.00176366,14.0152851 11.0899471,14.0152851 C11.616696,14.0152851 12.1528513,13.8930041 12.6890065,13.7613169 L14.090535,14.5232216 C14.1281599,14.5420341 14.175191,14.5608465 14.2222222,14.5608465 C14.2880658,14.5608465 14.3539095,14.5420341 14.4009406,14.4950029 C14.4950029,14.4197531 14.5232216,14.3068783 14.4950029,14.1940035 L14.1375661,13.0182246 C15.3321575,12.0681952 16,10.9112287 16,9.77307466 Z M13.5073486,12.5573192 C13.4132863,12.6231628 13.3756614,12.7454438 13.4132863,12.8489124 L13.6108172,13.5167549 L12.7642563,13.0558495 C12.7266314,13.037037 12.6796003,13.0182246 12.6325691,13.0182246 C12.6137566,13.0182246 12.5855379,13.0182246 12.5667255,13.0276308 C12.0776014,13.1499118 11.5696649,13.2815991 11.0711346,13.2815991 C8.78542034,13.2815991 6.92298648,11.7107584 6.92298648,9.78248091 C6.92298648,7.85420342 8.78542034,6.28336273 11.0711346,6.28336273 C13.319224,6.28336273 15.2098765,7.88242211 15.2098765,9.78248091 C15.2192828,10.7419165 14.617284,11.7295708 13.5073486,12.5573192 Z M2.84068195,10.0082305 C2.87830687,9.89535567 2.84068195,9.77307466 2.73721341,9.69782481 C1.42034097,8.77601411 0.752498531,7.65667255 0.752498531,6.36801881 C0.752498531,4.04467959 2.99118166,2.15402705 5.74720753,2.15402705 C8.15520283,2.15402705 10.3092299,3.62139919 10.7795415,5.56848912 C8.21164022,5.62492652 6.13286303,7.44973545 6.13286303,9.66019989 C6.13286303,9.95179308 6.17048795,10.2527925 6.25514405,10.5537919 C6.24573781,10.5537919 6.22692536,10.5537919 6.21751912,10.5537919 C6.06701942,10.5631981 5.90711348,10.5726044 5.74720755,10.5726044 C5.21105234,10.5726044 4.750147,10.478542 4.25161672,10.3750735 L3.95061731,10.3186361 C3.89417992,10.3092299 3.8283363,10.3186361 3.77189891,10.3374486 L2.52087009,10.9676661 L2.84068195,10.0082305 Z M9.5755438,7.96707819 C9.28395061,7.96707819 8.99235744,8.25867138 8.99235744,8.55026455 C8.99235744,8.84185773 9.28395062,9.13345091 9.5755438,9.13345091 C10.0176367,9.13345091 10.2904174,8.8324515 10.2904174,8.55026455 C10.2904174,8.26807759 10.0176367,7.96707819 9.5755438,7.96707819 Z M12.5761317,7.96707819 C12.2845385,7.96707819 12.0023516,8.25867138 12.0023516,8.55026455 C12.0023516,8.84185773 12.2845385,9.13345091 12.5761317,9.13345091 C13.0182246,9.13345091 13.2910053,8.8324515 13.2910053,8.55026455 C13.2910053,8.26807759 13.0182246,7.96707819 12.5761317,7.96707819 Z" id="形状" fill-rule="nonzero"></path>
            </g>
        </g>
    </g>
</svg>